<svg width="27" height="39" viewBox="0 0 27 39" fill="none" xmlns="http://www.w3.org/2000/svg">
<path d="M18.0688 38.625C17.7854 38.625 17.5106 38.5719 17.2443 38.4656C16.9779 38.3594 16.7392 38.2 16.5281 37.9875L3.72501 24.6531C3.47709 24.4052 3.27309 24.0688 3.11301 23.6438C2.95292 23.2188 2.87359 22.8292 2.87501 22.475C2.87501 21.6604 3.16755 20.9606 3.75263 20.3755C4.33772 19.7904 5.03684 19.4986 5.85001 19.5H10.3125C12.1896 19.5 13.8103 18.8887 15.1745 17.6661C16.5388 16.4436 17.3618 14.9298 17.6438 13.125H2.87501C2.27292 13.125 1.76788 12.921 1.35988 12.513C0.951883 12.105 0.748591 11.6007 0.750007 11C0.750007 10.3979 0.954008 9.89288 1.36201 9.48488C1.77001 9.07688 2.27434 8.87359 2.87501 8.87501H17.0063C16.4042 7.63542 15.5095 6.61684 14.3224 5.81926C13.1352 5.02167 11.7986 4.62359 10.3125 4.62501H2.87501C2.27292 4.62501 1.76788 4.42101 1.35988 4.01301C0.951883 3.60501 0.748591 3.10067 0.750007 2.50001C0.750007 1.89792 0.954008 1.39288 1.36201 0.984882C1.77001 0.576882 2.27434 0.373591 2.87501 0.375007H24.125C24.7271 0.375007 25.2321 0.579008 25.6401 0.987008C26.0481 1.39501 26.2514 1.89934 26.25 2.50001C26.25 3.10209 26.046 3.60713 25.638 4.01513C25.23 4.42313 24.7257 4.62642 24.125 4.62501H19.3438C19.8396 5.22709 20.2823 5.8823 20.6719 6.59063C21.0615 7.29897 21.3625 8.06042 21.575 8.87501H24.125C24.7271 8.87501 25.2321 9.07901 25.6401 9.48701C26.0481 9.89501 26.2514 10.3993 26.25 11C26.25 11.6021 26.046 12.1071 25.638 12.5151C25.23 12.9231 24.7257 13.1264 24.125 13.125H21.9469C21.6636 16.1354 20.424 18.6592 18.2281 20.6964C16.0323 22.7335 13.3938 23.7514 10.3125 23.75H8.77188L19.6094 35.0125C20.2469 35.6854 20.38 36.4561 20.0089 37.3245C19.6377 38.1929 18.991 38.6264 18.0688 38.625Z" fill="white"/>
</svg>
