<svg width="91" height="91" viewBox="0 0 91 91" fill="none" xmlns="http://www.w3.org/2000/svg">
<path fill-rule="evenodd" clip-rule="evenodd" d="M45.5 90.0834C70.1233 90.0834 90.0833 70.1235 90.0833 45.5001C90.0833 20.8767 70.1233 0.916748 45.5 0.916748C20.8766 0.916748 0.916626 20.8767 0.916626 45.5001C0.916626 70.1235 20.8766 90.0834 45.5 90.0834ZM69.4457 31.3895C69.6542 31.1746 69.8174 30.9199 69.9254 30.6406C70.0333 30.3613 70.0839 30.0631 70.0741 29.7638C70.0643 29.4645 69.9943 29.1703 69.8683 28.8987C69.7423 28.627 69.5628 28.3836 69.3407 28.1828C69.1185 27.982 68.8581 27.8281 68.5751 27.7302C68.2922 27.6323 67.9923 27.5924 67.6936 27.6129C67.3949 27.6333 67.1033 27.7138 66.8363 27.8495C66.5694 27.9851 66.3325 28.1732 66.1398 28.4024L39.4366 57.9098L24.7464 43.8862C24.319 43.4776 23.7467 43.2556 23.1556 43.269C22.5645 43.2824 22.0029 43.53 21.5944 43.9575C21.1858 44.3849 20.9639 44.9572 20.9772 45.5483C20.9906 46.1394 21.2383 46.701 21.6657 47.1095L38.0144 62.7137L39.6707 64.2964L41.2066 62.5978L69.4457 31.3895Z" fill="#60D42F"/>
</svg>
